P3
12 12
255
255 255 255
255 255 255
255 255 255
0 0 0
0 0 0
0 0 0
255 255 255
255 255 255
255 255 255
0 0 0
0 0 0
0 0 0
0 0 0
0 0 0
0 0 0
255 255 255
255 255 255
255 255 255
0 0 0
0 0 0
0 0 0
255 255 255
255 255 255
255 255 255
255 255 255
255 255 255
255 255 255
0 0 0
0 0 0
141 141 141
255 255 255
255 255 255
255 255 255
0 0 0
0 0 0
0 0 0
0 0 0
0 0 0
0 0 0
113 113 113
85 85 85
132 132 132
141 141 141
170 170 170
0 0 0
255 255 255
255 255 255
255 255 255
255 255 255
255 255 255
255 255 255
141 141 141
122 122 122
122 122 122
132 132 132
85 85 85
255 255 255
0 0 0
0 0 0
0 0 0
0 0 0
0 0 0
141 141 141
132 132 132
132 132 132
132 132 132
122 122 122
122 122 122
141 141 141
255 255 255
255 255 255
255 255 255
255 255 255
255 255 255
255 255 255
141 141 141
122 122 122
122 122 122
132 132 132
85 85 85
255 255 255
0 0 0
0 0 0
0 0 0
0 0 0
0 0 0
0 0 0
113 113 113
85 85 85
132 132 132
141 141 141
170 170 170
0 0 0
255 255 255
255 255 255
255 255 255
255 255 255
255 255 255
255 255 255
0 0 0
0 0 0
141 141 141
255 255 255
255 255 255
255 255 255
0 0 0
0 0 0
0 0 0
0 0 0
0 0 0
0 0 0
255 255 255
255 255 255
255 255 255
0 0 0
0 0 0
0 0 0
255 255 255
255 255 255
255 255 255
255 255 255
255 255 255
255 255 255
0 0 0
0 0 0
0 0 0
255 255 255
255 255 255
255 255 255
0 0 0
0 0 0
0 0 0
0 0 0
0 0 0
0 0 0
255 255 255
255 255 255
255 255 255
0 0 0
0 0 0
0 0 0
255 255 255
255 255 255
255 255 255
